<svg xmlns="http://www.w3.org/2000/svg" viewBox="0 0 249 219"
     width="16" height="16"
     preserveAspectRatio="xMidYMid meet" focusable="false">
    <defs>
        <linearGradient id="a" x1="94.902%" x2="13.608%" y1="55.566%" y2="58.558%">
            <stop offset="0%" stop-color="#AECBFA" stop-opacity=".02"/>
            <stop offset="100%" stop-color="#AECBFA" stop-opacity=".8"/>
        </linearGradient>
        <linearGradient id="b" x1="82.065%" x2="5.417%" y1="41.475%" y2="45.193%">
            <stop offset="0%" stop-color="#AECBFA" stop-opacity=".8"/>
            <stop offset="100%" stop-color="#AECBFA" stop-opacity=".02"/>
        </linearGradient>
    </defs>
    <g transform="translate(-1 -1)">
        <path fill="url(#a)"
              d="M44.433,72.239 L25.433,105.104 C23.648,108.199 23.648,112.014 25.433,115.104 L71.138,194.264 C72.923,197.359 76.223,199.264 79.798,199.264 L171.203,199.264 C174.773,199.264 178.078,197.359 179.863,194.269 L207.368,146.709 C210.133,141.929 216.243,140.284 221.028,143.049 C225.808,145.809 227.453,151.929 224.688,156.709 L191.413,214.264 C189.623,217.359 186.323,219.264 182.748,219.264 L68.253,219.264 C64.678,219.264 61.378,217.359 59.588,214.264 L2.338,115.104 C0.558,112.014 0.558,108.199 2.338,105.104 L27.113,62.239 C29.873,57.454 35.993,55.819 40.773,58.579 C45.558,61.339 47.193,67.454 44.433,72.239"/>
        <path fill="url(#b)"
              d="M206.5885,148.032 L225.5535,115.157 C227.3385,112.067 227.3385,108.252 225.5535,105.157 L179.8485,25.997 C178.0635,22.907 174.7585,20.997 171.1885,20.997 L79.7785,20.997 C76.2085,20.997 72.9085,22.907 71.1235,25.997 L43.8435,73.307 C41.0835,78.092 34.9635,79.732 30.1835,76.972 C25.3985,74.207 23.7635,68.092 26.5235,63.312 L59.5735,5.997 C61.3635,2.907 64.6635,0.997 68.2385,0.997 L182.7335,0.997 C186.3085,0.997 189.6085,2.907 191.3935,5.997 L248.6485,105.157 C250.4335,108.252 250.4335,112.067 248.6485,115.157 L223.9085,158.037 C221.1485,162.817 215.0335,164.457 210.2485,161.692 C205.4635,158.932 203.8285,152.817 206.5885,148.032 Z"/>
        <path fill="#4285F4"
              d="M225.566 115.086L206.576 147.981C203.811 152.761 205.456 158.881 210.236 161.646 215.021 164.401 221.131 162.761 223.896 157.981L248.661 115.086C250.451 111.991 250.451 108.181 248.661 105.086L223.896 62.191C221.136 57.411 215.021 55.771 210.236 58.531 205.456 61.296 203.811 67.411 206.576 72.196L225.566 105.086C227.351 108.181 227.351 111.991 225.566 115.086M25.434 115.086L44.429 147.981C47.189 152.761 45.544 158.881 40.764 161.646 35.979 164.401 29.869 162.761 27.104 157.981L2.339 115.086C.549 111.991.549 108.181 2.339 105.086L27.104 62.191C29.869 57.411 35.979 55.771 40.764 58.531 45.544 61.296 47.189 67.411 44.424 72.196L25.434 105.086C23.649 108.181 23.649 111.991 25.434 115.086"/>
        <path fill="#E8F0FE"
              d="M77.309,108.245 C77.309,82.615 98.084,61.84 123.714,61.84 C149.344,61.84 170.119,82.615 170.119,108.245 C170.119,121.06 164.924,132.66 156.529,141.055 C148.134,149.455 136.529,154.65 123.714,154.65 C98.084,154.65 77.309,133.875 77.309,108.245"/>
        <path fill="#4285F4"
              d="M123.7155,71.8385 C103.6405,71.8385 87.3105,88.1735 87.3105,108.2435 C87.3105,128.3185 103.6405,144.6535 123.7155,144.6535 C133.4405,144.6535 142.5805,140.8635 149.4505,133.9885 C156.3305,127.1085 160.1205,117.9685 160.1205,108.2435 C160.1205,88.1735 143.7905,71.8385 123.7155,71.8385 M123.7155,164.6485 C92.6105,164.6485 67.3105,139.3485 67.3105,108.2435 C67.3105,77.1435 92.6105,51.8385 123.7155,51.8385 C154.8205,51.8385 180.1205,77.1435 180.1205,108.2435 C180.1205,123.3085 174.2505,137.4735 163.6005,148.1285 C152.9505,158.7835 138.7855,164.6485 123.7155,164.6485"/>
        <path fill="#4285F4"
              d="M153.72,180.242 L140.49,157.332 C137.735,152.547 139.37,146.427 144.155,143.667 C148.94,140.907 155.06,142.547 157.815,147.327 L171.045,170.237 C173.81,175.022 172.165,181.142 167.38,183.902 C162.595,186.662 156.485,185.022 153.72,180.242"/>
    </g>
</svg>
