<svg width="16" height="16" viewBox="0 0 32 32" version="1.1" xmlns="http://www.w3.org/2000/svg">
    <g id="google" fill="#E5E5E5">
        <path
            d="M31.0535505,13.0877394 L15.9896287,13.0877394 L15.9896287,19.2793225 L24.5952834,19.2793225 C24.2241564,21.2805212 23.0983192,22.973342 21.4014853,24.1073094 C19.9672182,25.0663713 18.1368078,25.633355 15.985355,25.633355 C11.8202476,25.633355 8.29701629,22.8190228 7.03786319,19.0374463 C6.72109446,18.0783844 6.53764169,17.0527166 6.53764169,15.9979674 C6.53764169,14.9430098 6.72109446,13.917342 7.03786319,12.9584886 C8.3012899,9.1809772 11.8243127,6.36664495 15.9896287,6.36664495 C18.3369381,6.36664495 20.4423713,7.17550489 22.101785,8.75976547 L26.6881042,4.16938111 C23.9155179,1.58426059 20.3007166,0 15.9896287,0 C9.73962215,0 4.33203909,3.58571987 1.70115961,8.81412378 C0.617068404,10.973759 0,13.4171205 0,16.0020326 C0,18.5871531 0.617068404,21.026241 1.70115961,23.1858762 C4.33203909,28.4142801 9.73962215,32 15.9896287,32 C20.3090554,32 23.9281303,30.5657329 26.5714658,28.1225798 C29.5942671,25.337329 31.3411857,21.2347101 31.3411857,16.3607557 C31.3411857,15.2265798 31.2412248,14.1384235 31.0535505,13.0877394 Z"/>
    </g>
</svg>
