<svg width="16" height="16" viewBox="0 0 32 32" version="1.1" xmlns="http://www.w3.org/2000/svg">
    <g id="github" fill="#E5E5E5">
        <path
            d="M15.9998589,0.191 C7.15990805,0.191 -4.8483615e-05,7.53225046 -4.8483615e-05,16.5960365 C-0.00370245355,23.6592493 4.40455425,29.9307398 10.9406504,32.1612888 C11.7406644,32.3039843 12.0398669,31.8119275 12.0398669,31.3802843 C12.0398669,30.9914642 12.0191482,29.7005718 12.0191482,28.3257635 C8.0000001,29.0853325 6.9599397,27.321704 6.63987785,26.3981962 C6.45917509,25.9256524 5.67987979,24.4704847 5.00000617,24.0801747 C4.43989793,23.7733961 3.63988392,23.0137791 4.97914684,22.9940738 C6.23998803,22.9726863 7.13923621,24.1834115 7.43989185,24.6756606 C8.87998269,27.1561311 11.1806968,26.4588502 12.0991637,26.0290814 C12.2399759,24.9627339 12.6590844,24.2457477 13.1200054,23.8357323 C9.55985631,23.4255247 5.83991072,22.0097677 5.83991072,15.7348648 C5.83991072,13.9499931 6.45917509,12.4751201 7.4799699,11.325193 C7.31993897,10.9149854 6.76001823,9.2335427 7.64000082,6.97785739 C7.64000082,6.97785739 8.97907624,6.54789636 12.0398669,8.66093419 C13.3424737,8.29032952 14.6882991,8.10375354 16.0399838,8.10634888 C17.3998717,8.10634888 18.7599939,8.29013727 20.0399132,8.65925203 C23.0990164,6.5267011 24.4399199,6.97934731 24.4399199,6.97934731 C25.3199025,9.23508067 24.7599818,10.9166676 24.5999509,11.3266829 C25.6191051,12.4751201 26.2398226,13.9302877 26.2398226,15.7348648 C26.2398226,22.0311552 22.5006582,23.4255247 18.9406967,23.8357323 C19.519883,24.3474946 20.0206476,25.3318487 20.0206476,26.8705478 C20.0206476,29.0639449 19.9999758,30.8275734 19.9999758,31.3819664 C19.9999758,31.8119275 20.3006314,32.3236897 21.1007861,32.1596066 C27.6131166,29.905219 31.9981234,23.6436773 31.9999515,16.5960365 C31.9999515,7.53225046 24.8399973,0.191 15.9998589,0.191 Z"/>
    </g>
</svg>
