<svg width="16" height="16" viewBox="0 0 254 320" version="1.1" xmlns="http://www.w3.org/2000/svg">
    <g id="stackoverflow">
        <path
            d="M167.143415,279.985951 L39.9742439,280.039415 L39.9601951,252.825756 L167.129756,252.759024 L167.143415,279.985951 Z M253.086829,125.85639 L231.333854,0.312195122 L204.561171,4.97365854 L226.312585,130.505756 L253.086829,125.842732 L253.086829,125.85639 Z M170.20722,217.859512 L43.5699512,206.177951 L41.0794146,233.284683 L167.716293,244.954146 L170.20722,217.859512 Z M178.55961,182.347317 L55.745561,149.274146 L48.6860488,175.554732 L171.512195,208.641561 L178.571707,182.347317 L178.55961,182.347317 Z M194.595902,151.217561 L85.0501463,86.4952195 L71.2636098,109.938732 L180.809366,174.675122 L194.609951,151.23122 L194.595902,151.217561 Z M221.449756,132.170537 L149.800195,26.8870244 L127.355317,42.2040976 L199.018146,147.489171 L221.449756,132.170537 Z"
            id="top" fill="#FF810F"/>
        <polygon id="bottom" fill="#BEBCBC"
                 points="191.19961 186.796878 191.19961 298.554537 22.032 298.554537 22.032 186.796878 0 186.796878 0 319.99961 213.125073 319.99961 213.125073 186.796878"/>
    </g>
</svg>
