<svg width="16" height="16" viewBox="0 0 320 320" version="1.1" xmlns="http://www.w3.org/2000/svg"
     xmlns:xlink="http://www.w3.org/1999/xlink">
    <defs>
        <polygon id="path-1"
                 points="0.0239700375 0.015980025 271.471461 0.015980025 271.471461 230.83186 0.0239700375 230.83186"/>
    </defs>
    <g id="google-colorful">
        <g id="编组">
            <mask id="mask-2" fill="white">
                <use xlink:href="#path-1"/>
            </mask>
            <path
                d="M66.9271411,160.006392 C66.9271411,149.614582 68.7001248,139.645843 71.8366042,130.305918 L16.7726342,89.1245943 C5.71006242,111.112709 -0.0359550562,135.391561 -0.000167703227,160.006392 C-0.000167703227,185.477353 6.02686642,209.505318 16.7462672,230.83186 L71.7822722,189.583421 C68.5722846,180.051336 66.9335331,170.062222 66.9271411,160.006392"
                id="Fill-1" fill="#FBBC05" mask="url(#mask-2)"/>
            <path
                d="M163.636255,65.4649688 C186.680649,65.4649688 207.503021,73.4565793 223.866966,86.5466167 L271.471461,40.006392 C242.467316,15.2840949 205.280999,0.0107865169 163.636255,0.0107865169 C98.9714856,0.0107865169 43.3909613,36.2155306 16.7726342,89.1245943 L71.8633708,130.305918 C84.5459176,92.5874657 120.708315,65.4649688 163.636255,65.4649688"
                id="Fill-3" fill="#EA4335" mask="url(#mask-2)"/>
        </g>
        <path
            d="M163.636255,254.545818 C120.694332,254.545818 84.5319351,227.423321 71.8366042,189.704869 L16.7726342,230.886192 C43.3769788,283.795256 98.9591011,320 163.636255,320 C203.534782,320 241.635556,306.131336 270.243396,280.12784 L217.961948,240.555705 C203.222372,249.650337 184.648789,254.545818 163.621873,254.545818"
            id="Fill-4" fill="#34A853"/>
        <path
            d="M319.825019,160.006392 C319.825019,150.555406 318.325693,140.369738 316.103271,130.919151 L163.621873,130.919151 L163.621873,192.732285 L251.385768,192.732285 C247.008439,213.813933 235.062572,230.014082 217.97593,240.555705 L270.243396,280.12784 C300.285443,252.827566 319.825019,212.164395 319.825019,160.006392"
            id="Fill-5" fill="#4285F4"/>
    </g>
</svg>
