<?xml version="1.0" encoding="UTF-8"?>
<svg width="16" height="9.75" viewBox="0 0 320 195" version="1.1" xmlns="http://www.w3.org/2000/svg">
    <!-- Generator: Sketch 55.2 (78181) - https://sketchapp.com -->
    <title>language-cpp</title>
    <desc>Created with Sketch.</desc>
    <g id="android-ref-plugin" stroke="none" stroke-width="1" fill="none" fill-rule="evenodd">
        <path
            d="M137.87865,186.573664 C134.261119,188.522443 128.417636,190.331412 120.627005,191.999755 C112.695748,193.808724 103.373321,194.783318 92.6609483,194.783318 C61.9137754,194.225708 38.816609,185.0435 23.3739329,167.51305 C7.79063162,149.844421 0,127.443043 0,100.3134 C0.695788634,68.1742427 10.0165846,43.5473196 27.8258388,26.2956745 C46.1918871,8.90381191 69.0086184,-5.68434189e-14 96.5572831,-5.68434189e-14 C106.990852,-5.68434189e-14 116.034881,0.974593219 123.548339,2.64334464 C131.060573,4.31331888 136.625659,6.12228781 140.242782,8.20802327 L132.173754,42.851531 L117.426458,38.121228 C111.86178,36.7312812 105.460687,36.0354926 98.0874474,36.0354926 C81.948575,35.895275 68.5912267,41.0429696 58.1560276,51.3395816 C47.5818339,61.4963837 42.1573728,77.0780546 41.7383507,97.8086428 C41.7383507,116.73067 46.8876757,131.477965 56.7660808,142.330556 C66.6440783,153.042929 80.5569978,158.609238 98.3658444,158.747825 L116.869257,157.079481 C122.85255,155.96467 127.860435,154.434506 132.173754,152.625945 L137.87865,186.573664 Z M166.957479,83.4787394 L166.957479,55.6529005 L194.78291,55.6529005 L194.78291,83.4787394 L222.608749,83.4787394 L222.608749,111.304578 L194.78291,111.304578 L194.78291,139.130009 L166.957479,139.130009 L166.957479,111.304578 L139.130009,111.304578 L139.130009,83.4787394 L166.957479,83.4787394 Z M236.521668,83.8863484 L264.34873,83.8863484 L264.34873,56.0605096 L292.174569,56.0605096 L292.174569,83.8863484 L320,83.8863484 L320,111.712187 L292.174569,111.712187 L292.174569,139.537618 L264.34873,139.537618 L264.34873,111.712187 L236.521668,111.712187 L236.521668,83.8863484 Z"
            id="language-cpp" fill="#000000"/>
    </g>
</svg>
